<?xml version="1.0" encoding="UTF-8" standalone="no"?>
<svg
   xmlns:dc="http://purl.org/dc/elements/1.1/"
   xmlns:cc="http://creativecommons.org/ns#"
   xmlns:rdf="http://www.w3.org/1999/02/22-rdf-syntax-ns#"
   xmlns:svg="http://www.w3.org/2000/svg"
   xmlns="http://www.w3.org/2000/svg"
   viewBox="0 0 284.26062 59.682625"
   height="59.682625"
   width="284.26062"
   xml:space="preserve"
   version="1.1"
   id="svg4155"><metadata
     id="metadata4161"><rdf:RDF><cc:Work
         rdf:about=""><dc:format>image/svg+xml</dc:format><dc:type
           rdf:resource="http://purl.org/dc/dcmitype/StillImage" /><dc:title></dc:title></cc:Work></rdf:RDF></metadata><defs
     id="defs4159"><clipPath
       id="clipPath4169"
       clipPathUnits="userSpaceOnUse"><path
         id="path4171"
         d="M 0,216 432,216 432,0 0,0 0,216 Z" /></clipPath></defs><g
     transform="matrix(1.25,0,0,-1.25,-123.493,170.24775)"
     id="g4163"><g
       id="g4165"><g
         clip-path="url(#clipPath4169)"
         id="g4167"><g
           transform="translate(119.7734,107.3252)"
           id="g4173"><path
             id="path4175"
             style="fill:#000000;fill-opacity:1;fill-rule:nonzero;stroke:none"
             d="m 0,0 c 1.277,1.351 1.916,3.33 1.916,5.94 0,2.61 -0.809,4.456 -2.43,5.536 -1.619,1.08 -4.158,1.619 -7.613,1.619 l -6.48,0 0,-15.119 7.398,0 C -3.682,-2.024 -1.279,-1.35 0,0 M 4.508,15.579 C 7.137,13.383 8.451,9.999 8.451,5.427 8.451,0.854 7.109,-2.493 4.428,-4.617 1.746,-6.741 -2.367,-7.803 -7.912,-7.803 l -6.695,0 0,-11.07 -6.372,0 0,37.746 12.959,0 c 5.725,0 9.901,-1.099 12.528,-3.294" /></g><g
           transform="translate(133.0293,88.4521)"
           id="g4177"><path
             id="path4179"
             style="fill:#000000;fill-opacity:1;fill-rule:nonzero;stroke:none"
             d="m 0,0 0,37.746 6.373,0 0,-31.698 17.225,0 L 23.598,0 0,0 Z" /></g><g
           transform="translate(218.457,88.4521)"
           id="g4181"><path
             id="path4183"
             style="fill:#000000;fill-opacity:1;fill-rule:nonzero;stroke:none"
             d="m 0,0 -6.48,0 0,14.904 -14.04,22.842 6.965,0 10.315,-17.172 10.314,17.172 6.965,0 L 0,14.904 0,0 Z" /></g><g
           transform="translate(249.5879,121.6621)"
           id="g4185"><path
             id="path4187"
             style="fill:#000000;fill-opacity:1;fill-rule:nonzero;stroke:none"
             d="m 0,0 c -1.855,0 -3.375,-0.378 -4.564,-1.134 -1.188,-0.756 -1.782,-1.899 -1.782,-3.429 0,-1.531 0.594,-2.7 1.782,-3.51 1.189,-0.81 3.716,-1.684 7.587,-2.619 3.87,-0.937 6.786,-2.25 8.748,-3.942 1.961,-1.692 2.944,-4.185 2.944,-7.479 0,-3.294 -1.242,-5.967 -3.727,-8.019 -2.484,-2.052 -5.742,-3.078 -9.773,-3.078 -5.904,0 -11.143,2.033 -15.715,6.102 l 3.996,4.806 c 3.817,-3.312 7.775,-4.969 11.881,-4.969 2.051,0 3.68,0.441 4.887,1.324 1.205,0.882 1.808,2.051 1.808,3.51 0,1.458 -0.566,2.592 -1.701,3.402 -1.133,0.81 -3.088,1.548 -5.859,2.214 -2.772,0.666 -4.879,1.277 -6.319,1.836 -1.439,0.557 -2.716,1.287 -3.834,2.187 -2.232,1.692 -3.347,4.283 -3.347,7.776 0,3.492 1.269,6.183 3.806,8.073 2.539,1.89 5.68,2.835 9.424,2.835 2.412,0 4.807,-0.397 7.182,-1.188 C 9.801,3.905 11.852,2.789 13.58,1.35 L 10.178,-3.456 C 9.063,-2.448 7.551,-1.62 5.643,-0.972 3.734,-0.324 1.854,0 0,0" /></g><g
           transform="translate(297.3496,126.1982)"
           id="g4189"><path
             id="path4191"
             style="fill:#000000;fill-opacity:1;fill-rule:nonzero;stroke:none"
             d="m 0,0 0,-5.994 -20.141,0 0,-9.989 18.09,0 0,-5.671 -18.09,0 0,-10.098 20.789,0 0,-5.994 -27.162,0 0,37.746 L 0,0 Z" /></g><g
           transform="translate(314.7559,130.3662)"
           id="g4193"><path
             id="path4195"
             style="fill:#000000;fill-opacity:1;fill-rule:nonzero;stroke:none"
             d="m 0,0 0,-41.914 -6.373,0 0,41.914 -81.447,0 0,5.832 99.267,0 L 11.447,0 0,0 Z" /></g><path
           id="path4197"
           style="fill:#8cc63f;fill-opacity:1;fill-rule:evenodd;stroke:none"
           d="m 160.953,102.604 42.984,0 0,-4.126 -42.984,0 0,4.126 z" /><g
           transform="translate(161.1211,105.4229)"
           id="g4199"><path
             id="path4201"
             style="fill:#8cc63f;fill-opacity:1;fill-rule:evenodd;stroke:none"
             d="m 0,0 c 0,0 8.671,10.002 15.457,18.233 5.759,6.986 5.867,6.986 11.678,0 C 33.958,10.033 42.582,0 42.582,0 L 0,0 Z" /></g><path
           id="path4203"
           style="fill:#8cc63f;fill-opacity:1;fill-rule:evenodd;stroke:none"
           d="m 160.737,96.295 42.985,0 0,-7.415 -42.985,0 0,7.415 z" /></g></g></g></svg>